<?xml version="1.0" encoding="utf-8"?>
<!-- Generator: Adobe Illustrator 27.1.1, SVG Export Plug-In . SVG Version: 6.00 Build 0)  -->
<svg version="1.1" id="레이어_1" xmlns="http://www.w3.org/2000/svg" xmlns:xlink="http://www.w3.org/1999/xlink" x="0px"
	 y="0px" width="155px" height="28px" viewBox="0 0 155 28" enable-background="new 0 0 155 28" xml:space="preserve">
<g>
	<g>
		<g>
			<path fill="#084FFF" d="M125.16,2.5c2.48,1.51,4.14,4.01,4.14,6.88c0,1.89-0.66,3.82-1.99,5.2c-1.5,1.55-3.71,2.14-5.74,2.62
				c-1.44,0.34-3.13,0.55-4.5,1.1c-1.5,0.61-3.05,1.55-3.05,3.42l15.59,0v5.11h-21.38v-4.37c0-2.69,1.25-5.19,3.96-7.05
				c1.99-1.37,4.34-2.09,6.67-2.55c2.14-0.42,4.91-0.64,4.91-3.44c0-2.73-3.43-3.6-5.74-3.46c-2.67,0.16-4.57,1.21-5.99,2.74
				l-3.83-3.47c2.04-2.4,5.83-4.32,9.82-4.35C120.65,0.85,123.17,1.29,125.16,2.5z"/>
			<g>
				<path fill="#084FFF" d="M131.16,15.64c-0.8,1.03-1.52,2.39-0.87,4.41c0.51,1.14,1.4,2.26,3.88,2.26h10.68v4.52h5.53v-4.52h4.52
					v-4.59h-4.52c0,0,0-13.12,0-13.13c0-1.98-1.54-3.44-3.6-3.63c-1.71-0.16-3.56,0.44-4.72,1.86L131.16,15.64z M144.84,6.64v11.08
					h-9.43L144.84,6.64z"/>
			</g>
			<g>
				<path d="M75.96,12.27l-14.2,0c0,0,0-2.53,0-2.95c0-1.97,0.78-3,2.83-3l12.37,0v-5.1l-13.32,0c-4.85,0-7.41,2.86-7.41,7.13
					l0,18.5h5.53v-9.95h14.2V12.27z"/>
			</g>
			<g>
				<path d="M105.51,12.3c-0.32-2.78-1.78-5.71-3.67-7.58c-2.44-2.41-5.72-3.93-9.42-3.93c-7.28,0-13.17,5.93-13.17,13.21
					c0,4.74,2.53,8.88,6.29,11.2c2.09,1.31,4.52,1.95,6.91,1.95c3.61,0,7.03-1.5,9.42-3.96l-3.92-3.44
					c-1.41,1.35-3.42,2.22-5.52,2.23c-2.08,0-4.24-0.88-5.68-2.36c-0.8-0.83-1.39-1.76-1.78-2.74h20.31
					C105.28,16.87,105.81,14.95,105.51,12.3z M84.6,12.29c0.32-1.44,1.03-2.81,2.14-3.94c2.58-2.64,6.63-3.05,9.59-1.38
					c2.17,1.22,3.46,3.25,3.92,5.32H84.6z"/>
			</g>
			<path d="M13.92,22.4C9.27,22.4,5.51,18.64,5.5,14c0.01-4.64,3.77-8.39,8.41-8.4c2.22,0,4.23,0.86,5.73,2.26l4.07-3.57
				c-2.5-2.52-5.97-4.08-9.8-4.08C6.28,0.2,0.1,6.38,0.1,14c0,7.62,6.18,13.8,13.82,13.8c3.81,0,7.25-1.54,9.75-4.02l-3.72-3.92
				C18.42,21.42,16.28,22.4,13.92,22.4z"/>
			<path d="M45.27,1.23v2.7c-1.62-1.98-4.77-3.11-7.6-3.11c-7.28,0-13.18,5.9-13.18,13.18c0,7.23,5.86,13.1,13.01,13.1
				c2.83,0,5.85-0.79,7.77-3.08v2.81h5.56V1.23H45.27z M37.65,21.96c-4.42,0-8-3.58-8-8c0-4.42,3.58-8,8-8c4.42,0,8,3.58,8,8
				C45.65,18.38,42.07,21.96,37.65,21.96z"/>
		</g>
	</g>
</g>
</svg>
